<?xml version="1.0" encoding="UTF-8"?>
<!DOCTYPE svg PUBLIC "-//W3C//DTD SVG 1.1//EN" "http://www.w3.org/Graphics/SVG/1.1/DTD/svg11.dtd">
<!-- Creator: CorelDRAW X8 -->
<svg xmlns="http://www.w3.org/2000/svg" xml:space="preserve" width="250mm" height="70mm" version="1.1" style="shape-rendering:geometricPrecision; text-rendering:geometricPrecision; image-rendering:optimizeQuality; fill-rule:evenodd; clip-rule:evenodd"
viewBox="0 0 25000 7000"
 xmlns:xlink="http://www.w3.org/1999/xlink">
 <defs>
  <style type="text/css">
   <![CDATA[
    .fil8 {fill:none}
    .fil7 {fill:#2B2A29;fill-rule:nonzero}
    .fil6 {fill:#0083C3;fill-rule:nonzero}
    .fil1 {fill:url(#id1)}
    .fil4 {fill:url(#id2)}
    .fil2 {fill:url(#id3)}
    .fil0 {fill:url(#id4)}
    .fil3 {fill:url(#id5)}
    .fil5 {fill:url(#id6)}
   ]]>
  </style>
   <clipPath id="id0">
    <path d="M0 0l25000 0 0 7000 -25000 0 0 -7000z"/>
   </clipPath>
  <linearGradient id="id1" gradientUnits="userSpaceOnUse" x1="5726.58" y1="5795.36" x2="5726.58" y2="401.34">
   <stop offset="0" style="stop-opacity:1; stop-color:#E53824"/>
   <stop offset="1" style="stop-opacity:1; stop-color:#FBBA00"/>
  </linearGradient>
  <linearGradient id="id2" gradientUnits="userSpaceOnUse" x1="2682.05" y1="6598.66" x2="2682.05" y2="3581.98">
   <stop offset="0" style="stop-opacity:1; stop-color:#0078BF"/>
   <stop offset="1" style="stop-opacity:1; stop-color:#009EC4"/>
  </linearGradient>
  <linearGradient id="id3" gradientUnits="userSpaceOnUse" x1="3808.99" y1="4805.64" x2="3808.99" y2="1907.94">
   <stop offset="0" style="stop-opacity:1; stop-color:#EC691F"/>
   <stop offset="1" style="stop-opacity:1; stop-color:#FFED00"/>
  </linearGradient>
  <linearGradient id="id4" gradientUnits="userSpaceOnUse" x1="7208.48" y1="6474.59" x2="7208.48" y2="826.91">
   <stop offset="0" style="stop-opacity:1; stop-color:#E5097F"/>
   <stop offset="1" style="stop-opacity:1; stop-color:#E53824"/>
  </linearGradient>
  <linearGradient id="id5" gradientUnits="userSpaceOnUse" x1="2670.71" y1="4931.89" x2="2670.71" y2="3065.43">
   <stop offset="0" style="stop-opacity:1; stop-color:#21A73F"/>
   <stop offset="1" style="stop-opacity:1; stop-color:#95C12B"/>
  </linearGradient>
  <linearGradient id="id6" gradientUnits="userSpaceOnUse" x1="3822.41" y1="5243.56" x2="5148.89" y2="5243.56">
   <stop offset="0" style="stop-opacity:1; stop-color:#E5097F"/>
   <stop offset="1" style="stop-opacity:1; stop-color:#E31E24"/>
  </linearGradient>
 </defs>
 <g id="Layer_x0020_1">
  <metadata id="CorelCorpID_0Corel-Layer"/>
  <g>
  </g>
  <g style="clip-path:url(#id0)">
   <g>
    <g id="_1468519874176">
     <path class="fil0" d="M8507 826l-3 0c-69,1 -138,4 -206,11l0 0c-538,56 -1055,326 -1406,737l0 0c-404,476 -581,1102 -697,1714l0 0c-61,323 -110,649 -176,971l0 0c-60,289 -135,575 -247,848l0 0c-6,14 -12,28 -18,42l0 0c-31,72 -67,144 -105,214l0 0c-24,235 -118,466 -286,656l0 0c-207,234 -487,364 -775,390l0 0c595,202 1248,223 1856,67l0 0c306,-78 600,-200 869,-365l0 0c5,-3 9,-6 14,-9l0 0c823,-510 996,-1206 1225,-2231l0 0c103,-465 228,-1119 380,-1580l0 0c90,-272 220,-555 410,-755l0 0c41,-43 101,-81 147,-116l0 0c2,0 19,-1 19,-1l0 0 0 0c0,-73 194,-125 321,-146 -371,-288 -847,-447 -1318,-447l0 0 -4 0z"/>
     <path class="fil1" d="M4746 1379c-225,617 -256,1296 1,1895l0 0c121,281 440,748 582,1018l0 0c18,36 35,72 52,108l0 0c24,57 45,115 63,173l0 0c252,360 281,835 73,1222l0 0c342,-206 671,-449 915,-754l0 0c326,-407 523,-941 434,-1456l0 0c-22,-127 -57,-258 -101,-388l0 0c-24,-68 -49,-133 -74,-196l0 0c-4,-8 -7,-16 -10,-24l0 0c-1,-1 -1,-1 -1,-2l0 0c-66,-155 -143,-305 -224,-440l0 0c-7,-13 -15,-25 -23,-38l0 0c-394,-648 -827,-1124 -1122,-2096l0 0c-241,288 -435,623 -565,978l0 0z"/>
     <path class="fil2" d="M1992 1908c50,314 157,625 313,905l0 0c270,488 688,885 1215,1053l0 0c246,79 723,134 975,193l0 0c4,1 7,2 11,3l0 0c156,4 312,41 457,112l0 0c106,48 207,112 298,193l0 0c141,124 244,276 309,439l0 0c59,-345 81,-695 19,-1037l0 0c-80,-436 -313,-859 -692,-1088l0 0c-94,-57 -197,-107 -305,-151l0 0c-57,-22 -112,-43 -167,-61l0 0c-7,-3 -14,-5 -21,-7l0 0c-1,-1 -1,-1 -2,-1l0 0c-136,-44 -274,-78 -406,-101l0 0c-12,-2 -25,-4 -37,-7l0 0c-635,-107 -1180,-94 -1967,-445z"/>
     <path class="fil3" d="M2995 3034c-107,23 -217,57 -325,99l0 0c-57,23 -111,46 -164,70l0 0c-6,3 -13,6 -20,10l0 0c0,0 -1,0 -1,1l0 0c-130,61 -254,131 -365,205l0 0c-11,7 -21,14 -32,21l0 0c-535,357 -923,741 -1736,1026 253,194 543,346 849,443l0 0c531,169 1107,171 1606,-68l0 0c234,-112 618,-399 843,-529l0 0c29,-17 59,-33 89,-48l0 0c92,-45 188,-79 285,-103l0 0c284,-130 613,-131 901,-1l0 0c22,8 43,18 64,28l0 0c-203,-318 -441,-616 -744,-838l0 0c-284,-208 -633,-344 -981,-344l0 0c-90,0 -180,9 -269,28l0 0z"/>
     <path class="fil4" d="M2199 3994c-80,75 -157,161 -228,253l0 0c-37,48 -72,96 -105,144l0 0c-4,6 -8,12 -12,18l0 0c0,0 -1,1 -1,2l0 0c-79,118 -150,242 -208,363l0 0c-5,11 -11,23 -16,34l0 0c-276,582 -411,1110 -962,1773 316,36 644,17 956,-56l0 0c543,-128 1038,-423 1343,-884l0 0c142,-216 325,-660 451,-887l0 0c12,-23 26,-45 40,-67l0 0c42,-77 92,-151 152,-219l0 0c77,-87 165,-160 259,-218l0 0c245,-166 546,-223 829,-166l0 0c-381,-203 -839,-421 -1264,-461l0 0c-59,-6 -118,-8 -178,-8l0 0c-386,0 -776,117 -1056,379l0 0z"/>
     <path class="fil5" d="M3868 4697c-301,341 -269,862 72,1164l0 0c341,302 862,270 1163,-71l0 0c302,-341 270,-862 -71,-1164l0 0c-157,-139 -352,-207 -546,-207 -228,0 -455,94 -618,278l0 0z"/>
     <polygon class="fil6" points="14354,1199 13296,4101 13258,4101 12215,1199 10834,1199 12220,4963 14333,4963 15765,1199 "/>
     <polygon class="fil6" points="19749,1199 19380,2140 20557,2140 20557,4963 22033,4963 22033,2140 23377,2140 23746,1199 "/>
     <path class="fil6" d="M18281 2620l-858 0c-132,0 -240,-108 -240,-240 0,-132 108,-240 240,-240l1578 0 369 -941 -2500 0c-651,0 -1181,530 -1181,1181 0,651 530,1181 1181,1181l876 0c127,0 231,103 231,231 0,127 -104,230 -231,230l-2657 0 -369 941 3561 0c646,0 1172,-525 1172,-1171 0,-646 -526,-1172 -1172,-1172z"/>
     <path class="fil7" d="M10051 6249l279 0 -106 -291c-5,-13 -11,-29 -16,-46 -6,-18 -12,-37 -18,-57 -5,20 -11,39 -16,57 -6,18 -11,34 -16,47l-107 290zm567 330l-126 0c-14,0 -26,-3 -35,-10 -9,-7 -16,-16 -20,-27l-65 -178 -363 0 -65 178c-3,10 -10,18 -19,26 -10,7 -21,11 -35,11l-126 0 343 -875 167 0 344 875z"/>
     <path class="fil7" d="M11225 5863c-4,9 -9,15 -15,19 -6,4 -13,5 -21,5 -8,0 -17,-3 -27,-9 -10,-6 -22,-13 -36,-21 -14,-8 -30,-14 -48,-21 -18,-6 -40,-9 -65,-9 -23,0 -42,3 -59,8 -17,5 -31,13 -42,23 -12,9 -20,21 -26,35 -6,13 -9,28 -9,44 0,21 6,38 18,51 11,14 26,26 45,36 19,9 41,18 65,26 24,7 49,15 74,24 25,9 50,19 74,30 25,12 46,26 65,44 19,18 34,39 46,64 11,26 17,57 17,93 0,40 -7,77 -20,111 -14,35 -33,65 -59,90 -26,26 -58,46 -96,61 -37,15 -80,22 -129,22 -28,0 -55,-3 -82,-8 -27,-6 -53,-13 -78,-24 -25,-10 -48,-22 -69,-36 -22,-14 -41,-30 -58,-47l47 -78c4,-6 10,-11 16,-14 6,-4 13,-6 21,-6 10,0 21,4 33,12 11,9 25,18 41,28 16,10 35,19 56,27 22,9 48,13 78,13 47,0 82,-11 108,-33 25,-22 38,-54 38,-95 0,-23 -6,-42 -17,-56 -12,-15 -27,-27 -46,-37 -19,-10 -41,-18 -65,-25 -24,-7 -49,-14 -74,-22 -25,-8 -49,-18 -73,-29 -25,-12 -46,-26 -65,-45 -19,-18 -34,-40 -46,-68 -11,-27 -17,-61 -17,-101 0,-31 6,-62 19,-93 13,-30 31,-57 56,-80 24,-24 54,-42 89,-56 36,-15 77,-22 122,-22 52,0 99,8 143,25 44,16 81,38 111,67l-40 77z"/>
     <path class="fil7" d="M11923 5863c-4,9 -9,15 -15,19 -6,4 -13,5 -21,5 -8,0 -17,-3 -27,-9 -10,-6 -22,-13 -36,-21 -14,-8 -30,-14 -48,-21 -18,-6 -40,-9 -65,-9 -23,0 -42,3 -59,8 -17,5 -31,13 -42,23 -12,9 -21,21 -26,35 -6,13 -9,28 -9,44 0,21 6,38 18,51 11,14 26,26 45,36 19,9 41,18 65,26 24,7 49,15 74,24 25,9 50,19 74,30 25,12 46,26 65,44 19,18 34,39 46,64 11,26 17,57 17,93 0,40 -7,77 -20,111 -14,35 -34,65 -60,90 -26,26 -57,46 -95,61 -37,15 -80,22 -129,22 -28,0 -55,-3 -82,-8 -27,-6 -53,-13 -78,-24 -25,-10 -48,-22 -70,-36 -21,-14 -40,-30 -57,-47l47 -78c4,-6 10,-11 16,-14 6,-4 13,-6 21,-6 10,0 21,4 32,12 12,9 26,18 42,28 16,10 35,19 56,27 22,9 48,13 78,13 46,0 82,-11 108,-33 25,-22 38,-54 38,-95 0,-23 -6,-42 -17,-56 -12,-15 -27,-27 -46,-37 -19,-10 -41,-18 -65,-25 -24,-7 -49,-14 -74,-22 -25,-8 -49,-18 -73,-29 -25,-12 -46,-26 -65,-45 -19,-18 -34,-40 -46,-68 -11,-27 -17,-61 -17,-101 0,-31 6,-62 19,-93 13,-30 31,-57 56,-80 24,-24 54,-42 89,-56 36,-15 76,-22 122,-22 52,0 99,8 143,25 44,16 81,38 111,67l-40 77z"/>
     <path class="fil7" d="M12825 6142c0,-48 -7,-91 -19,-130 -13,-38 -31,-70 -55,-97 -24,-26 -53,-47 -87,-61 -34,-14 -73,-21 -115,-21 -43,0 -82,7 -116,21 -34,14 -63,35 -87,61 -24,27 -43,59 -56,97 -13,39 -19,82 -19,130 0,48 6,91 19,129 13,38 32,70 56,97 24,26 53,46 87,61 34,14 73,21 116,21 42,0 81,-7 115,-21 34,-15 63,-35 87,-61 24,-27 42,-59 55,-97 12,-38 19,-81 19,-129zm167 0c0,64 -11,123 -32,178 -22,55 -52,102 -91,142 -38,40 -85,71 -139,93 -55,23 -115,34 -181,34 -67,0 -127,-11 -182,-34 -54,-22 -101,-53 -140,-93 -39,-40 -69,-87 -91,-142 -21,-55 -32,-114 -32,-178 0,-65 11,-124 32,-179 22,-54 52,-102 91,-142 39,-40 86,-71 140,-93 55,-22 115,-34 182,-34 66,0 126,12 181,34 54,23 101,54 139,94 39,39 69,87 91,141 21,55 32,114 32,179z"/>
     <path class="fil7" d="M13770 6373c9,0 17,3 23,10l64 70c-35,44 -79,77 -131,101 -52,23 -114,35 -186,35 -65,0 -124,-11 -176,-33 -52,-23 -96,-53 -133,-93 -36,-40 -64,-87 -84,-142 -20,-54 -29,-114 -29,-179 0,-66 11,-126 32,-181 22,-55 53,-102 92,-141 40,-40 87,-71 142,-93 55,-22 116,-33 183,-33 65,0 122,11 170,31 49,21 90,49 125,83l-54 76c-4,5 -8,9 -13,12 -5,4 -12,6 -21,6 -9,0 -18,-4 -28,-11 -10,-7 -22,-15 -37,-24 -15,-8 -34,-16 -57,-23 -22,-7 -51,-11 -86,-11 -42,0 -79,7 -114,21 -34,15 -64,35 -89,62 -25,26 -44,59 -58,97 -14,38 -21,81 -21,129 0,49 7,93 21,131 14,38 33,71 57,97 23,26 51,46 84,60 32,14 67,21 104,21 22,0 42,-1 60,-4 18,-2 35,-6 50,-11 15,-5 29,-12 43,-20 13,-9 27,-19 40,-31 4,-4 8,-7 13,-9 4,-2 9,-3 14,-3z"/>
     <polygon class="fil7" points="14212,6579 14049,6579 14049,5704 14212,5704 "/>
     <path class="fil7" d="M14660 6249l279 0 -107 -291c-4,-13 -10,-29 -16,-46 -5,-18 -11,-37 -17,-57 -5,20 -11,39 -16,57 -6,18 -11,34 -17,47l-106 290zm567 330l-126 0c-15,0 -26,-3 -35,-10 -9,-7 -16,-16 -20,-27l-65 -178 -363 0 -65 178c-3,10 -10,18 -19,26 -10,7 -21,11 -35,11l-127 0 344 -875 167 0 344 875z"/>
     <polygon class="fil7" points="15982,5704 15982,5838 15719,5838 15719,6579 15556,6579 15556,5838 15291,5838 15291,5704 "/>
     <polygon class="fil7" points="16686,5704 16686,5834 16298,5834 16298,6076 16604,6076 16604,6202 16298,6202 16298,6449 16686,6449 16686,6579 16134,6579 16134,5704 "/>
     <path class="fil7" d="M17486 6142c0,-48 -6,-91 -19,-130 -13,-38 -32,-70 -55,-96 -24,-27 -53,-47 -87,-61 -34,-14 -73,-21 -116,-21l-170 0 0 616 170 0c43,0 82,-7 116,-21 34,-15 63,-35 87,-61 23,-27 42,-59 55,-97 13,-38 19,-81 19,-129zm167 0c0,64 -11,123 -32,176 -22,54 -52,100 -91,139 -38,39 -85,69 -140,90 -54,22 -114,32 -181,32l-334 0 0 -875 334 0c67,0 127,11 181,32 55,22 102,52 140,91 39,38 69,84 91,138 21,54 32,112 32,177z"/>
     <path class="fil7" d="M18795 6459c36,0 68,-3 96,-10 27,-6 53,-15 77,-27l0 -159 -109 0c-11,0 -19,-3 -25,-9 -6,-6 -9,-13 -9,-22l0 -92 291 0 0 355c-22,16 -45,30 -69,42 -24,12 -50,21 -77,29 -27,8 -56,13 -87,17 -32,4 -65,6 -101,6 -64,0 -122,-11 -176,-33 -54,-23 -100,-53 -139,-93 -39,-40 -70,-87 -92,-142 -22,-54 -33,-114 -33,-179 0,-66 11,-126 32,-181 21,-55 52,-102 91,-142 40,-40 87,-70 143,-92 56,-22 119,-33 189,-33 72,0 133,11 186,32 52,21 96,49 133,83l-48 74c-9,14 -21,22 -37,22 -9,0 -19,-3 -29,-10 -13,-7 -26,-15 -40,-23 -13,-7 -28,-14 -45,-20 -16,-5 -34,-10 -55,-14 -20,-3 -44,-5 -70,-5 -43,0 -82,7 -117,22 -35,14 -65,35 -90,62 -24,27 -43,60 -57,98 -13,37 -20,80 -20,127 0,50 8,95 22,134 14,40 34,73 59,100 25,27 56,48 91,62 35,14 73,21 115,21z"/>
     <path class="fil7" d="M19485 6120l102 0c30,0 57,-3 80,-11 23,-8 41,-18 56,-32 15,-13 26,-29 33,-48 7,-18 11,-39 11,-61 0,-44 -15,-79 -44,-102 -29,-24 -74,-36 -134,-36l-104 0 0 290zm0 117l0 342 -163 0 0 -875 267 0c60,0 111,6 153,18 43,13 78,30 105,52 27,22 47,49 60,80 13,31 19,65 19,102 0,29 -4,57 -13,83 -9,27 -21,50 -37,72 -17,21 -37,40 -61,56 -24,16 -51,29 -82,39 21,11 38,28 53,50l219 323 -146 0c-14,0 -26,-3 -36,-8 -10,-6 -18,-14 -25,-24l-184 -281c-7,-10 -15,-18 -23,-22 -8,-5 -20,-7 -37,-7l-69 0z"/>
     <path class="fil7" d="M20361 6249l279 0 -107 -291c-5,-13 -10,-29 -16,-46 -6,-18 -11,-37 -17,-57 -6,20 -11,39 -17,57 -5,18 -11,34 -16,47l-106 290zm566 330l-126 0c-14,0 -25,-3 -34,-10 -9,-7 -16,-16 -20,-27l-65 -178 -363 0 -65 178c-4,10 -10,18 -19,26 -10,7 -22,11 -35,11l-127 0 344 -875 166 0 344 875z"/>
     <path class="fil7" d="M21234 6144l122 0c30,0 56,-4 79,-11 22,-8 40,-18 55,-32 14,-14 25,-31 32,-51 8,-20 11,-42 11,-67 0,-23 -3,-45 -11,-64 -7,-18 -18,-35 -32,-48 -15,-13 -33,-23 -55,-31 -23,-7 -49,-10 -79,-10l-122 0 0 314zm0 127l0 308 -163 0 0 -875 285 0c59,0 110,7 152,21 43,13 78,32 106,57 28,25 49,54 62,88 13,35 20,72 20,113 0,42 -7,81 -21,117 -14,35 -35,65 -64,91 -28,25 -63,45 -106,59 -42,14 -92,21 -149,21l-122 0z"/>
     <polygon class="fil7" points="22609,6579 22445,6579 22445,6197 22035,6197 22035,6579 21871,6579 21871,5704 22035,5704 22035,6080 22445,6080 22445,5704 22609,5704 "/>
     <polygon class="fil7" points="23018,6579 22855,6579 22855,5704 23018,5704 "/>
     <path class="fil7" d="M23865 6373c9,0 16,3 23,10l64 70c-35,44 -79,77 -131,101 -52,23 -114,35 -187,35 -65,0 -123,-11 -175,-33 -52,-23 -96,-53 -133,-93 -37,-40 -65,-87 -84,-142 -20,-54 -30,-114 -30,-179 0,-66 11,-126 33,-181 22,-55 52,-102 92,-141 40,-40 87,-71 142,-93 55,-22 116,-33 182,-33 65,0 122,11 171,31 48,21 90,49 125,83l-55 76c-3,5 -7,9 -12,12 -5,4 -12,6 -21,6 -9,0 -19,-4 -28,-11 -10,-7 -22,-15 -37,-24 -15,-8 -34,-16 -57,-23 -23,-7 -52,-11 -87,-11 -41,0 -79,7 -113,21 -35,15 -64,35 -89,62 -25,26 -44,59 -58,97 -14,38 -21,81 -21,129 0,49 7,93 21,131 14,38 32,71 56,97 24,26 52,46 84,60 33,14 67,21 104,21 23,0 43,-1 61,-4 18,-2 34,-6 49,-11 16,-5 30,-12 43,-20 14,-9 27,-19 41,-31 4,-4 8,-7 12,-9 5,-2 10,-3 15,-3z"/>
     <path class="fil7" d="M24592 5863c-4,9 -9,15 -15,19 -6,4 -13,5 -21,5 -8,0 -17,-3 -27,-9 -10,-6 -22,-13 -36,-21 -14,-8 -30,-14 -48,-21 -18,-6 -40,-9 -65,-9 -23,0 -42,3 -59,8 -17,5 -31,13 -42,23 -12,9 -21,21 -26,35 -6,13 -9,28 -9,44 0,21 6,38 18,51 11,14 26,26 45,36 19,9 41,18 65,26 24,7 49,15 74,24 25,9 50,19 74,30 25,12 46,26 65,44 19,18 34,39 46,64 11,26 17,57 17,93 0,40 -7,77 -20,111 -14,35 -33,65 -60,90 -26,26 -57,46 -95,61 -37,15 -80,22 -129,22 -28,0 -55,-3 -82,-8 -27,-6 -53,-13 -78,-24 -25,-10 -48,-22 -69,-36 -22,-14 -41,-30 -58,-47l47 -78c4,-6 10,-11 16,-14 6,-4 13,-6 21,-6 10,0 21,4 33,12 11,9 25,18 41,28 16,10 35,19 56,27 22,9 48,13 78,13 46,0 82,-11 108,-33 25,-22 38,-54 38,-95 0,-23 -6,-42 -17,-56 -12,-15 -27,-27 -46,-37 -19,-10 -41,-18 -65,-25 -24,-7 -49,-14 -74,-22 -25,-8 -49,-18 -73,-29 -25,-12 -46,-26 -65,-45 -19,-18 -34,-40 -46,-68 -11,-27 -17,-61 -17,-101 0,-31 6,-62 19,-93 13,-30 31,-57 56,-80 24,-24 54,-42 89,-56 36,-15 77,-22 122,-22 52,0 99,8 143,25 44,16 81,38 111,67l-40 77z"/>
    </g>
   </g>
  </g>
  <polygon class="fil8" points="0,0 25000,0 25000,7000 0,7000 "/>
 </g>
</svg>
